<?xml version="1.0" encoding="utf-8"?>
<!-- Generator: Adobe Illustrator 25.3.1, SVG Export Plug-In . SVG Version: 6.00 Build 0)  -->
<svg version="1.1" id="Calque_1" xmlns="http://www.w3.org/2000/svg" xmlns:xlink="http://www.w3.org/1999/xlink" x="0px" y="0px"
	 viewBox="0 0 283.46 283.46" style="enable-background:new 0 0 283.46 283.46;" xml:space="preserve">
<style type="text/css">
	.st0{fill:#1E274A;}
</style>
<path class="st0" d="M183.73,168.51c-7.71-4.49-16.77-7.51-26.26-8.86c1.41-0.37,2.74-0.76,3.97-1.16c9.2-3.04,13.68-7.17,13.31-12.29c-0.37-5.1-5.9-10.4-14.79-14.18c-0.27-0.11-0.54-0.22-0.81-0.33c10.82-0.79,17.14-4.9,17.67-11.82c0.36-4.74-2.11-10.34-6.62-14.99c-4.87-5.01-11.18-8.05-17.78-8.55c2.85-1.96,4.71-5.24,4.71-8.96c0-6.01-4.87-10.89-10.89-10.89s-10.89,4.87-10.89,10.89c0,4.63,2.9,8.58,6.98,10.15c-3.11,0.98-6.09,2.51-8.81,4.56c-5.16,3.9-8.46,9.06-8.82,13.8c-0.24,3.19,0.78,7.66,6.8,11.11c-1.14,0.03-2.28,0.08-3.43,0.16c-24.96,1.79-44.19,15.43-43.46,25.52c0.4,5.51,6.53,11.52,31.39,11.52c0.6,0,1.22,0,1.84-0.01c-3.13,1.24-6.12,2.68-8.93,4.31c-10.06,5.86-16.07,13.3-16.07,19.91c0,6.93,6.95,18.56,53.48,18.56s53.48-11.63,53.48-18.56C199.8,181.81,193.79,174.37,183.73,168.51z M128.69,116.2c0.27-3.56,3.05-7.75,7.25-10.92c4.32-3.27,9.41-5.02,14.49-5.02c0.56,0,1.12,0.02,1.68,0.06c5.63,0.43,11.04,3.04,15.22,7.35c3.67,3.77,5.77,8.33,5.5,11.89c-0.69,9.05-17.64,8.46-22.81,8.07c-6.73-0.51-12.27-1.84-16.02-3.83C130.18,121.8,128.45,119.31,128.69,116.2z M88.6,152.4c-0.52-7.22,17.09-19.62,39.76-21.25c1.72-0.12,3.45-0.19,5.17-0.19c8.88,0,17.55,1.64,24.86,4.74c7.26,3.08,12.12,7.31,12.36,10.78c0.29,4-6.5,6.86-10.58,8.2c-7.11,2.35-17.4,4.06-29.77,4.95C105.46,161.44,89.05,158.59,88.6,152.4z M146.32,202.99c-30.52,0-49.48-5.58-49.48-14.56c0-10.06,21.25-25.56,49.48-25.56c28.23,0,49.48,15.51,49.48,25.56C195.8,197.41,176.84,202.99,146.32,202.99z"/>
</svg>
