<?xml version="1.0" encoding="utf-8"?>
<!-- Generator: Adobe Illustrator 25.3.1, SVG Export Plug-In . SVG Version: 6.00 Build 0)  -->
<svg version="1.1" id="Calque_1" xmlns="http://www.w3.org/2000/svg" xmlns:xlink="http://www.w3.org/1999/xlink" x="0px" y="0px"
	 viewBox="0 0 283.46 283.46" style="enable-background:new 0 0 283.46 283.46;" xml:space="preserve">
<style type="text/css">
	.st0{fill:#1E274A;}
</style>
<g>
	<circle class="st0" cx="154.22" cy="73.06" r="10.89"/>
	<path class="st0" d="M203.01,84.88c0-0.05-0.01-0.09-0.01-0.14c0-0.12-0.02-0.24-0.04-0.36c-0.01-0.06-0.02-0.12-0.04-0.18c-0.04-0.14-0.1-0.28-0.18-0.41c-0.03-0.06-0.07-0.11-0.11-0.16c-0.04-0.05-0.07-0.1-0.11-0.15c-0.03-0.03-0.06-0.06-0.1-0.09c-0.03-0.03-0.05-0.07-0.08-0.1c-0.02-0.02-0.05-0.03-0.07-0.04c-0.12-0.1-0.24-0.18-0.38-0.24c-0.05-0.03-0.11-0.04-0.17-0.07c-0.1-0.04-0.21-0.07-0.32-0.09c-0.06-0.01-0.11-0.03-0.17-0.03c-0.15-0.02-0.3-0.02-0.46,0c-0.05,0.01-0.1,0.02-0.15,0.03c-0.13,0.03-0.26,0.07-0.39,0.12c-0.03,0.01-0.06,0.01-0.08,0.03L82.52,139.27c-0.78,0.37-1.23,1.2-1.12,2.06c0.11,0.86,0.76,1.54,1.6,1.71l35.99,6.97l11.08,23.51c0.01,0.03,0.03,0.05,0.05,0.08c0.02,0.04,0.05,0.09,0.08,0.13c0.05,0.08,0.1,0.15,0.16,0.22c0.02,0.03,0.05,0.06,0.07,0.08c0.02,0.02,0.04,0.05,0.07,0.07c0.09,0.09,0.18,0.16,0.29,0.23c0.02,0.01,0.03,0.03,0.05,0.04c0.01,0.01,0.02,0.02,0.04,0.02c0,0,0.01,0.01,0.01,0.01c0.02,0.01,0.04,0.01,0.06,0.02c0.11,0.06,0.22,0.11,0.34,0.14c0.02,0.01,0.04,0.02,0.06,0.02c0.03,0.01,0.07,0.01,0.1,0.02c0.12,0.03,0.23,0.04,0.35,0.05c0.03,0,0.05,0.01,0.08,0.01c0,0,0,0,0,0s0,0,0,0c0.01,0,0.02,0,0.03,0c0.1,0,0.19-0.02,0.29-0.03c0.04-0.01,0.08-0.01,0.13-0.02c0.02,0,0.04-0.01,0.06-0.02c0.03-0.01,0.06-0.02,0.1-0.03c0.08-0.03,0.17-0.05,0.25-0.09c0.04-0.02,0.08-0.05,0.12-0.07c0.02-0.01,0.05-0.02,0.07-0.03l16.77-10.25l20.55,12.18c0.31,0.18,0.67,0.28,1.02,0.28c0.24,0,0.47-0.04,0.7-0.13c0.57-0.21,1.01-0.67,1.2-1.24l29.75-89.78c0.01-0.02,0.01-0.05,0.01-0.07C202.97,85.2,203,85.04,203.01,84.88z M185.56,94.41l-65.72,51.69l-30.13-5.83L185.56,94.41z M130.84,150.02C130.84,150.02,130.84,150.02,130.84,150.02c-0.02,0.02-0.03,0.04-0.05,0.05c-0.04,0.04-0.08,0.09-0.11,0.13c-0.03,0.04-0.07,0.08-0.1,0.12c-0.01,0.02-0.02,0.05-0.04,0.07c-0.01,0.02-0.02,0.03-0.03,0.05c-0.02,0.03-0.03,0.06-0.04,0.1c-0.02,0.04-0.05,0.09-0.07,0.13c-0.01,0.03-0.02,0.06-0.03,0.08c-0.02,0.06-0.04,0.11-0.05,0.17c-0.01,0.04-0.03,0.08-0.04,0.12c-0.01,0.03-0.01,0.05-0.01,0.08c-0.01,0.06-0.02,0.13-0.02,0.19c0,0.04-0.01,0.07-0.01,0.11c0,0,0,0.01,0,0.01v0c0,0,0,0,0,0l-0.22,12.62l-7.17-15.22l48.98-38.52L130.84,150.02z M133.93,169.06l0.24-14.13l11.61,6.88L133.93,169.06z M170.14,171.59l-34.63-20.53l61.04-59.15L170.14,171.59z"/>
	<path class="st0" d="M124.98,181.99c-0.97-0.53-2.19-0.17-2.71,0.8c-3.45,6.35-8.77,9.02-14.92,12.12c-8.24,4.15-17.58,8.85-23.42,23.65c-0.41,1.03,0.1,2.19,1.13,2.59c0.24,0.09,0.49,0.14,0.73,0.14c0.8,0,1.55-0.48,1.86-1.27c5.28-13.38,13.53-17.53,21.5-21.55c6.19-3.12,12.59-6.34,16.64-13.79C126.31,183.73,125.95,182.52,124.98,181.99z"/>
</g>
</svg>
