<?xml version="1.0" encoding="utf-8"?>
<!-- Generator: Adobe Illustrator 25.3.1, SVG Export Plug-In . SVG Version: 6.00 Build 0)  -->
<svg version="1.1" id="Calque_1" xmlns="http://www.w3.org/2000/svg" xmlns:xlink="http://www.file:///home/julie/Downloads/MJ_3_Elan_Bleu_CMJN.svg
w3.org/1999/xlink" x="0px" y="0px"
	 viewBox="0 0 283.46 283.46" style="enable-background:new 0 0 283.46 283.46;" xml:space="preserve">
<style type="text/css">
	.st0{fill:#1E2345;}
</style>
<g>
	<circle class="st0" cx="146.53" cy="72.51" r="10.89"/>
	<path class="st0" d="M173.5,114.27c-2.86,0-5.67,0.39-8.37,1.11V91.05c0-1.1-0.9-2-2-2s-2,0.9-2,2v20.52h-29.2V91.05
		c0-1.1-0.9-2-2-2s-2,0.9-2,2v31.55c-12.57,0.48-23.27,9.09-26.45,21.15c-1.61-0.46-3.28-0.69-4.99-0.69c-10.07,0-18.27,8.19-18.27,18.27c0,10.07,8.19,18.27,18.27,18.27h31.44v40.26c0,1.1,0.9,2,2,2s2-0.9,2-2v-19.8h29.2v19.8c0,1.1,0.9,2,2,2s2-0.9,2-2v-40.26h8.37c18.01,0,32.66-14.65,32.66-32.66C206.17,128.92,191.51,114.27,173.5,114.27zM161.13,115.58v1.16c-5.85,2.41-10.97,6.48-14.61,11.8c-4.23-3.29-9.27-5.29-14.59-5.83v-7.14H161.13z M131.93,157.82h29.2v17.12h-29.2V157.82z M161.13,153.82h-29.2V136.7h29.2V153.82z M131.93,132.7v-5.95c4.93,0.58,9.55,2.64,13.31,5.95H131.93zM161.13,132.7h-12.52c0.03-0.05,0.07-0.09,0.1-0.14c2.93-5.05,7.31-8.99,12.42-11.45V132.7z M82.23,161.33c0-7.87,6.4-14.27,14.27-14.27c1.96,0,3.86,0.39,5.66,1.17c0.56,0.24,1.2,0.21,1.74-0.07c0.54-0.29,0.92-0.81,1.02-1.41c2.02-11.33,11.61-19.63,23.02-20.14v48.99H96.49C88.62,175.59,82.23,169.19,82.23,161.33z M161.13,196.06h-29.2v-16.46h29.2V196.06z M173.5,175.59h-8.37v-56.04c2.68-0.83,5.5-1.28,8.37-1.28c15.8,0,28.66,12.86,28.66,28.66S189.31"/>
</g>
</svg>
