<?xml version="1.0" encoding="UTF-8" standalone="no"?>
<svg
   id="Calque_1"
   data-name="Calque 1"
   viewBox="0 0 971.29 763.39"
   version="1.1"
   sodipodi:docname="greenwashing-cases-logo.svg"
   inkscape:version="1.2.2 (b0a8486541, 2022-12-01)"
   xmlns:inkscape="http://www.inkscape.org/namespaces/inkscape"
   xmlns:sodipodi="http://sodipodi.sourceforge.net/DTD/sodipodi-0.dtd"
   xmlns="http://www.w3.org/2000/svg"
   xmlns:svg="http://www.w3.org/2000/svg">
  <sodipodi:namedview
     id="namedview103"
     pagecolor="#ffffff"
     bordercolor="#000000"
     borderopacity="0.25"
     inkscape:showpageshadow="2"
     inkscape:pageopacity="0.0"
     inkscape:pagecheckerboard="0"
     inkscape:deskcolor="#d1d1d1"
     showgrid="false"
     inkscape:zoom="0.30914735"
     inkscape:cx="362.28679"
     inkscape:cy="386.54706"
     inkscape:window-width="1920"
     inkscape:window-height="953"
     inkscape:window-x="0"
     inkscape:window-y="0"
     inkscape:window-maximized="1"
     inkscape:current-layer="Calque_1" />
  <defs
     id="defs4">
    <style
       id="style2">
      .cls-1 {
        fill: #f4c461;
      }

      .cls-2 {
        fill: #04174a;
      }

      .cls-3 {
        fill: #fff;
      }
    </style>
  </defs>
  <path
     class="cls-2"
     d="M526.9,171.23c.1.03.23.02.33.06-.1-.04-.23-.03-.33-.06"
     id="path6" />
  <path
     class="cls-3"
     d="M526.9,171.23c.1.03.23.02.33.06-.1-.04-.23-.03-.33-.06"
     id="path8" />
  <g
     id="g66"
     style="fill:#ffffff;fill-opacity:1">
    <g
       id="g42"
       style="fill:#ffffff;fill-opacity:1">
      <path
         class="cls-3"
         d="M42.93,565.12c-2.59,0-4.75-.45-6.47-1.34-1.72-.89-3.14-2.03-4.26-3.42v2.48c0,.45-.15.83-.44,1.14-.29.31-.68.47-1.17.47h-5.3c-.45,0-.83-.16-1.14-.47-.31-.31-.47-.69-.47-1.14v-44.38c0-.45.16-.83.47-1.14s.69-.47,1.14-.47h5.7c.49,0,.88.16,1.17.47.29.31.44.69.44,1.14v14.88c1.12-1.3,2.51-2.36,4.19-3.18,1.68-.83,3.72-1.24,6.13-1.24s4.43.4,6.17,1.21,3.21,1.93,4.39,3.39c1.18,1.45,2.09,3.14,2.72,5.06.63,1.92.96,4,1.01,6.23.04.8.07,1.53.07,2.18s-.02,1.37-.07,2.18c-.09,2.32-.45,4.46-1.07,6.4-.63,1.94-1.52,3.63-2.68,5.06-1.16,1.43-2.62,2.54-4.36,3.32s-3.8,1.17-6.17,1.17ZM40.45,557.95c1.92,0,3.42-.41,4.49-1.24,1.07-.83,1.84-1.91,2.31-3.25.47-1.34.75-2.82.84-4.43.09-1.34.09-2.68,0-4.02-.09-1.61-.37-3.08-.84-4.43s-1.24-2.42-2.31-3.25c-1.07-.83-2.57-1.24-4.49-1.24-1.79,0-3.24.4-4.36,1.21-1.12.8-1.97,1.82-2.55,3.05-.58,1.23-.89,2.51-.94,3.86-.04.8-.07,1.67-.07,2.58s.02,1.78.07,2.58c.09,1.39.39,2.74.91,4.06.51,1.32,1.34,2.4,2.48,3.25,1.14.85,2.63,1.27,4.46,1.27Z"
         id="path10"
         style="fill:#ffffff;fill-opacity:1" />
      <path
         class="cls-3"
         d="M72.96,577.19c-.36,0-.67-.13-.94-.4-.27-.27-.4-.58-.4-.94,0-.18.01-.35.03-.5.02-.16.1-.35.23-.57l5.23-12.4-12.87-30.37c-.18-.45-.27-.76-.27-.94.04-.4.2-.75.47-1.04.27-.29.6-.44,1.01-.44h5.43c.54,0,.94.13,1.21.4.27.27.47.56.6.87l8.92,21.92,9.18-21.92c.13-.36.34-.66.6-.9s.67-.37,1.21-.37h5.36c.36,0,.68.13.97.4.29.27.44.58.44.94,0,.27-.09.63-.27,1.07l-18.97,43.91c-.18.36-.4.66-.67.91-.27.24-.67.37-1.21.37h-5.3Z"
         id="path12"
         style="fill:#ffffff;fill-opacity:1" />
      <path
         class="cls-3"
         d="M26.1,651.5c-.49,0-.89-.16-1.21-.47-.31-.31-.47-.69-.47-1.14v-43.65c0-.49.16-.89.47-1.21.31-.31.72-.47,1.21-.47h5.3c.62,0,1.09.17,1.41.5.31.33.51.59.6.77l12.94,24.14,13.07-24.14c.09-.18.29-.44.6-.77.31-.33.78-.5,1.41-.5h5.23c.49,0,.89.16,1.21.47.31.31.47.72.47,1.21v43.65c0,.45-.16.83-.47,1.14-.31.31-.72.47-1.21.47h-5.63c-.49,0-.88-.16-1.17-.47-.29-.31-.44-.69-.44-1.14v-29.03l-9.39,17.9c-.22.4-.51.75-.87,1.04-.36.29-.83.44-1.41.44h-2.75c-.63,0-1.11-.14-1.44-.44-.33-.29-.61-.64-.84-1.04l-9.39-17.9v29.03c0,.45-.16.83-.47,1.14-.31.31-.69.47-1.14.47h-5.63Z"
         id="path14"
         style="fill:#ffffff;fill-opacity:1" />
      <path
         class="cls-3"
         d="M91.47,652.17c-2.32,0-4.43-.46-6.3-1.37-1.88-.92-3.36-2.15-4.46-3.69s-1.64-3.27-1.64-5.2c0-3.13,1.26-5.62,3.79-7.48,2.53-1.85,5.87-3.09,10.02-3.72l9.18-1.34v-1.41c0-1.88-.47-3.33-1.41-4.36-.94-1.03-2.55-1.54-4.83-1.54-1.61,0-2.92.32-3.92.97-1.01.65-1.75,1.51-2.25,2.58-.36.58-.87.87-1.54.87h-5.3c-.49,0-.86-.13-1.11-.4-.25-.27-.37-.63-.37-1.07.04-.71.33-1.59.87-2.61.54-1.03,1.38-2.02,2.55-2.98,1.16-.96,2.66-1.78,4.49-2.45,1.83-.67,4.04-1.01,6.64-1.01,2.82,0,5.2.35,7.14,1.04,1.94.69,3.5,1.62,4.66,2.78,1.16,1.16,2.01,2.53,2.55,4.09.54,1.57.8,3.22.8,4.96v21.05c0,.45-.16.83-.47,1.14-.31.31-.69.47-1.14.47h-5.43c-.49,0-.88-.16-1.17-.47-.29-.31-.44-.69-.44-1.14v-2.62c-.58.85-1.36,1.64-2.35,2.38-.98.74-2.18,1.34-3.59,1.81-1.41.47-3.07.7-4.99.7ZM93.75,645.8c1.56,0,2.98-.34,4.26-1.01s2.28-1.71,3.02-3.12,1.11-3.18,1.11-5.33v-1.41l-6.7,1.07c-2.64.4-4.6,1.05-5.9,1.94-1.3.89-1.94,1.99-1.94,3.29,0,.98.3,1.82.91,2.51.6.69,1.37,1.21,2.31,1.54.94.34,1.92.5,2.95.5Z"
         id="path16"
         style="fill:#ffffff;fill-opacity:1" />
      <path
         class="cls-3"
         d="M138.4,651.5c-2.68,0-4.94-.47-6.77-1.41-1.83-.94-3.2-2.33-4.09-4.19-.89-1.85-1.34-4.17-1.34-6.94v-15.22h-5.3c-.45,0-.83-.16-1.14-.47-.31-.31-.47-.69-.47-1.14v-3.89c0-.45.16-.83.47-1.14s.69-.47,1.14-.47h5.3v-11.13c0-.45.14-.83.44-1.14.29-.31.68-.47,1.17-.47h5.43c.45,0,.83.16,1.14.47.31.31.47.69.47,1.14v11.13h8.38c.45,0,.83.16,1.14.47.31.31.47.69.47,1.14v3.89c0,.45-.16.83-.47,1.14-.31.31-.69.47-1.14.47h-8.38v14.55c0,1.83.32,3.26.97,4.29.65,1.03,1.78,1.54,3.39,1.54h4.63c.45,0,.83.16,1.14.47.31.31.47.69.47,1.14v4.16c0,.45-.16.83-.47,1.14-.31.31-.69.47-1.14.47h-5.43Z"
         id="path18"
         style="fill:#ffffff;fill-opacity:1" />
      <path
         class="cls-3"
         d="M156.43,651.5c-.45,0-.83-.16-1.14-.47-.31-.31-.47-.69-.47-1.14v-44.38c0-.45.16-.83.47-1.14s.69-.47,1.14-.47h5.97c.49,0,.88.16,1.17.47.29.31.44.69.44,1.14v15.29c1.21-1.43,2.68-2.59,4.43-3.49,1.74-.89,3.89-1.34,6.44-1.34,2.73,0,5.11.61,7.14,1.84,2.03,1.23,3.61,2.96,4.73,5.2,1.12,2.24,1.68,4.92,1.68,8.04v18.84c0,.45-.16.83-.47,1.14-.31.31-.69.47-1.14.47h-6.03c-.45,0-.83-.16-1.14-.47-.31-.31-.47-.69-.47-1.14v-18.44c0-2.59-.64-4.63-1.91-6.1-1.27-1.48-3.12-2.21-5.53-2.21s-4.19.74-5.6,2.21-2.11,3.51-2.11,6.1v18.44c0,.45-.15.83-.44,1.14-.29.31-.68.47-1.17.47h-5.97Z"
         id="path20"
         style="fill:#ffffff;fill-opacity:1" />
      <path
         class="cls-3"
         d="M201.62,610.87c-.49,0-.88-.14-1.17-.44-.29-.29-.44-.68-.44-1.17v-4.83c0-.45.14-.83.44-1.14.29-.31.68-.47,1.17-.47h6.1c.49,0,.89.16,1.21.47.31.31.47.69.47,1.14v4.83c0,.49-.16.88-.47,1.17-.31.29-.72.44-1.21.44h-6.1ZM201.89,651.5c-.45,0-.83-.16-1.14-.47-.31-.31-.47-.69-.47-1.14v-31.64c0-.45.16-.83.47-1.14.31-.31.69-.47,1.14-.47h5.56c.49,0,.88.16,1.17.47.29.31.44.69.44,1.14v31.64c0,.45-.15.83-.44,1.14-.29.31-.68.47-1.17.47h-5.56Z"
         id="path22"
         style="fill:#ffffff;fill-opacity:1" />
      <path
         class="cls-3"
         d="M236.35,652.17c-4.96,0-8.89-1.43-11.8-4.29-2.91-2.86-4.47-6.93-4.69-12.2-.05-.45-.07-1.02-.07-1.71s.02-1.24.07-1.64c.18-3.35.95-6.26,2.31-8.72s3.25-4.35,5.67-5.67c2.41-1.32,5.25-1.98,8.51-1.98,3.62,0,6.66.75,9.12,2.25,2.46,1.5,4.31,3.58,5.56,6.23,1.25,2.66,1.88,5.73,1.88,9.22v1.41c0,.45-.16.83-.47,1.14-.31.31-.72.47-1.21.47h-22.26v.54c.04,1.57.35,3.01.9,4.33.56,1.32,1.38,2.38,2.48,3.18,1.09.8,2.4,1.21,3.92,1.21,1.25,0,2.3-.19,3.15-.57s1.54-.82,2.08-1.31c.54-.49.92-.89,1.14-1.21.4-.54.73-.86.97-.97.25-.11.61-.17,1.11-.17h5.77c.45,0,.82.13,1.11.4.29.27.41.6.37,1.01-.05.72-.41,1.59-1.11,2.61-.69,1.03-1.69,2.03-2.98,3.02-1.3.98-2.92,1.8-4.86,2.45-1.94.65-4.17.97-6.67.97ZM228.97,631.05h14.82v-.2c0-1.74-.29-3.26-.87-4.56-.58-1.3-1.43-2.32-2.55-3.08-1.12-.76-2.46-1.14-4.02-1.14s-2.91.38-4.02,1.14c-1.12.76-1.96,1.79-2.51,3.08-.56,1.3-.84,2.82-.84,4.56v.2Z"
         id="path24"
         style="fill:#ffffff;fill-opacity:1" />
      <path
         class="cls-3"
         d="M276.3,652.17c-2.73,0-5.08-.62-7.07-1.84-1.99-1.23-3.52-2.97-4.59-5.23-1.07-2.26-1.61-4.93-1.61-8.01v-18.84c0-.45.16-.83.47-1.14s.69-.47,1.14-.47h5.9c.49,0,.88.16,1.17.47.29.31.44.69.44,1.14v18.44c0,5.54,2.44,8.31,7.31,8.31,2.32,0,4.17-.74,5.53-2.21s2.05-3.51,2.05-6.1v-18.44c0-.45.16-.83.47-1.14s.69-.47,1.14-.47h5.9c.45,0,.83.16,1.14.47.31.31.47.69.47,1.14v31.64c0,.45-.16.83-.47,1.14-.31.31-.69.47-1.14.47h-5.43c-.49,0-.88-.16-1.17-.47-.29-.31-.44-.69-.44-1.14v-2.75c-1.21,1.57-2.7,2.79-4.49,3.69s-4.02,1.34-6.7,1.34Z"
         id="path26"
         style="fill:#ffffff;fill-opacity:1" />
      <path
         class="cls-3"
         d="M39.58,739.22c-2.41,0-4.7-.3-6.87-.91s-4.1-1.53-5.8-2.78c-1.7-1.25-3.05-2.79-4.06-4.63-1.01-1.83-1.53-4-1.57-6.5,0-.4.13-.75.4-1.04.27-.29.6-.44,1.01-.44h6.37c.58,0,1.02.16,1.31.47.29.31.52.74.7,1.27.22,1.61.74,2.92,1.54,3.92.81,1.01,1.82,1.74,3.05,2.21,1.23.47,2.6.7,4.12.7,2.82,0,4.97-.92,6.47-2.75,1.5-1.83,2.25-4.38,2.25-7.64v-21.59h-22.73c-.49,0-.88-.16-1.17-.47-.29-.31-.44-.69-.44-1.14v-4.69c0-.45.14-.83.44-1.14.29-.31.68-.47,1.17-.47h30.64c.49,0,.89.16,1.21.47.31.31.47.72.47,1.21v28.09c0,3.71-.77,6.91-2.31,9.59-1.54,2.68-3.69,4.73-6.44,6.13-2.75,1.41-6,2.11-9.75,2.11Z"
         id="path28"
         style="fill:#ffffff;fill-opacity:1" />
      <path
         class="cls-3"
         d="M80.61,739.22c-2.32,0-4.43-.46-6.3-1.37-1.88-.92-3.36-2.15-4.46-3.69s-1.64-3.27-1.64-5.2c0-3.13,1.26-5.62,3.79-7.48,2.53-1.85,5.87-3.09,10.02-3.72l9.18-1.34v-1.41c0-1.88-.47-3.33-1.41-4.36-.94-1.03-2.55-1.54-4.83-1.54-1.61,0-2.92.32-3.92.97-1.01.65-1.75,1.51-2.25,2.58-.36.58-.87.87-1.54.87h-5.3c-.49,0-.86-.13-1.11-.4-.25-.27-.37-.63-.37-1.07.04-.71.33-1.59.87-2.61.54-1.03,1.38-2.02,2.55-2.98,1.16-.96,2.66-1.78,4.49-2.45,1.83-.67,4.04-1.01,6.64-1.01,2.82,0,5.2.35,7.14,1.04,1.94.69,3.5,1.62,4.66,2.78,1.16,1.16,2.01,2.53,2.55,4.09.54,1.57.8,3.22.8,4.96v21.05c0,.45-.16.83-.47,1.14-.31.31-.69.47-1.14.47h-5.43c-.49,0-.88-.16-1.17-.47-.29-.31-.44-.69-.44-1.14v-2.62c-.58.85-1.36,1.64-2.35,2.38-.98.74-2.18,1.34-3.59,1.81-1.41.47-3.07.7-4.99.7ZM82.89,732.85c1.56,0,2.98-.34,4.26-1.01s2.28-1.71,3.02-3.12,1.11-3.18,1.11-5.33v-1.41l-6.7,1.07c-2.64.4-4.6,1.05-5.9,1.94-1.3.89-1.94,1.99-1.94,3.29,0,.98.3,1.82.91,2.51.6.69,1.37,1.21,2.31,1.54.94.34,1.92.5,2.95.5Z"
         id="path30"
         style="fill:#ffffff;fill-opacity:1" />
      <path
         class="cls-3"
         d="M113.79,738.55c-.45,0-.83-.16-1.14-.47-.31-.31-.47-.69-.47-1.14v-44.38c0-.45.16-.83.47-1.14s.69-.47,1.14-.47h5.97c.49,0,.88.16,1.17.47.29.31.44.69.44,1.14v15.29c1.21-1.43,2.68-2.59,4.43-3.49,1.74-.89,3.89-1.34,6.44-1.34,2.73,0,5.11.61,7.14,1.84,2.03,1.23,3.61,2.96,4.73,5.2,1.12,2.24,1.68,4.92,1.68,8.04v18.84c0,.45-.16.83-.47,1.14-.31.31-.69.47-1.14.47h-6.03c-.45,0-.83-.16-1.14-.47-.31-.31-.47-.69-.47-1.14v-18.44c0-2.59-.64-4.63-1.91-6.1-1.27-1.48-3.12-2.21-5.53-2.21s-4.19.74-5.6,2.21-2.11,3.51-2.11,6.1v18.44c0,.45-.15.83-.44,1.14-.29.31-.68.47-1.17.47h-5.97Z"
         id="path32"
         style="fill:#ffffff;fill-opacity:1" />
      <path
         class="cls-3"
         d="M159.25,738.55c-.45,0-.83-.16-1.14-.47-.31-.31-.47-.69-.47-1.14v-31.64c0-.45.16-.83.47-1.14.31-.31.69-.47,1.14-.47h5.5c.45,0,.83.16,1.14.47.31.31.47.69.47,1.14v2.75c1.16-1.43,2.65-2.62,4.46-3.59,1.81-.96,4.06-1.44,6.74-1.44s5.09.61,7.11,1.84,3.56,2.96,4.66,5.2c1.09,2.24,1.64,4.92,1.64,8.04v18.84c0,.45-.16.83-.47,1.14s-.69.47-1.14.47h-5.9c-.45,0-.83-.16-1.14-.47-.31-.31-.47-.69-.47-1.14v-18.44c0-2.59-.64-4.63-1.91-6.1-1.27-1.48-3.12-2.21-5.53-2.21s-4.18.74-5.57,2.21c-1.39,1.48-2.08,3.51-2.08,6.1v18.44c0,.45-.16.83-.47,1.14-.31.31-.69.47-1.14.47h-5.9Z"
         id="path34"
         style="fill:#ffffff;fill-opacity:1" />
      <path
         class="cls-3"
         d="M204.17,697.92c-.49,0-.88-.14-1.17-.44-.29-.29-.44-.68-.44-1.17v-4.83c0-.45.14-.83.44-1.14.29-.31.68-.47,1.17-.47h6.1c.49,0,.89.16,1.21.47.31.31.47.69.47,1.14v4.83c0,.49-.16.88-.47,1.17-.31.29-.72.44-1.21.44h-6.1ZM204.43,738.55c-.45,0-.83-.16-1.14-.47-.31-.31-.47-.69-.47-1.14v-31.64c0-.45.16-.83.47-1.14.31-.31.69-.47,1.14-.47h5.56c.49,0,.88.16,1.17.47.29.31.44.69.44,1.14v31.64c0,.45-.15.83-.44,1.14-.29.31-.68.47-1.17.47h-5.56Z"
         id="path36"
         style="fill:#ffffff;fill-opacity:1" />
      <path
         class="cls-3"
         d="M238.96,739.22c-3.22,0-6.04-.6-8.48-1.81-2.44-1.21-4.34-2.96-5.7-5.26-1.36-2.3-2.11-5.08-2.25-8.35-.04-.67-.07-1.55-.07-2.65s.02-2,.07-2.72c.13-3.26.88-6.04,2.25-8.35,1.36-2.3,3.26-4.06,5.7-5.26,2.44-1.21,5.26-1.81,8.48-1.81,2.86,0,5.3.4,7.31,1.21s3.66,1.81,4.96,3.02c1.3,1.21,2.27,2.47,2.92,3.79.65,1.32.99,2.51,1.04,3.59.04.49-.1.88-.44,1.17-.33.29-.73.44-1.17.44h-5.9c-.45,0-.79-.11-1.04-.34-.25-.22-.48-.56-.7-1.01-.67-1.79-1.55-3.05-2.65-3.79-1.1-.74-2.49-1.11-4.19-1.11-2.24,0-4.01.7-5.33,2.11-1.32,1.41-2.02,3.63-2.11,6.67-.09,1.7-.09,3.26,0,4.69.09,3.08.79,5.32,2.11,6.7,1.32,1.39,3.09,2.08,5.33,2.08,1.74,0,3.15-.37,4.22-1.11s1.94-2,2.62-3.79c.22-.45.46-.78.7-1.01.25-.22.59-.33,1.04-.33h5.9c.45,0,.84.15,1.17.44.34.29.48.68.44,1.17-.05.8-.26,1.71-.64,2.72-.38,1.01-.98,2.03-1.81,3.08-.83,1.05-1.87,2.01-3.12,2.88-1.25.87-2.76,1.57-4.53,2.11-1.77.54-3.81.8-6.13.8Z"
         id="path38"
         style="fill:#ffffff;fill-opacity:1" />
      <path
         class="cls-3"
         d="M267.19,738.55c-.45,0-.83-.16-1.14-.47-.31-.31-.47-.69-.47-1.14v-44.38c0-.45.16-.83.47-1.14s.69-.47,1.14-.47h5.97c.49,0,.88.16,1.17.47.29.31.44.69.44,1.14v15.29c1.21-1.43,2.68-2.59,4.43-3.49,1.74-.89,3.89-1.34,6.44-1.34,2.73,0,5.11.61,7.14,1.84,2.03,1.23,3.61,2.96,4.73,5.2,1.12,2.24,1.68,4.92,1.68,8.04v18.84c0,.45-.16.83-.47,1.14-.31.31-.69.47-1.14.47h-6.03c-.45,0-.83-.16-1.14-.47-.31-.31-.47-.69-.47-1.14v-18.44c0-2.59-.64-4.63-1.91-6.1-1.27-1.48-3.12-2.21-5.53-2.21s-4.19.74-5.6,2.21-2.11,3.51-2.11,6.1v18.44c0,.45-.15.83-.44,1.14-.29.31-.68.47-1.17.47h-5.97Z"
         id="path40"
         style="fill:#ffffff;fill-opacity:1" />
    </g>
    <path
       class="cls-3"
       d="M345.9,565.83c-8.79,0-16.3-1.43-22.54-4.3-6.24-2.86-11.1-7.07-14.56-12.62-3.47-5.55-5.39-12.43-5.76-20.67-.09-3.79-.14-7.86-.14-12.2s.05-8.5.14-12.48c.37-8.05,2.31-14.86,5.83-20.46,3.51-5.59,8.41-9.85,14.7-12.76,6.28-2.91,13.73-4.37,22.33-4.37,6.1,0,11.74.76,16.92,2.29,5.18,1.53,9.71,3.75,13.59,6.66,3.89,2.91,6.91,6.43,9.09,10.54,2.17,4.11,3.31,8.76,3.4,13.94.09.83-.16,1.53-.76,2.08-.6.56-1.32.83-2.15.83h-18.72c-1.2,0-2.13-.25-2.77-.76-.65-.51-1.2-1.46-1.67-2.85-1.29-4.9-3.4-8.25-6.31-10.05-2.91-1.81-6.5-2.71-10.75-2.71-5.09,0-9.11,1.41-12.07,4.23-2.96,2.82-4.58,7.51-4.85,14.08-.28,7.59-.28,15.35,0,23.3.28,6.57,1.89,11.26,4.85,14.08,2.96,2.82,6.98,4.23,12.07,4.23,4.25,0,7.86-.92,10.82-2.77,2.96-1.85,5.04-5.18,6.24-9.98.37-1.39.9-2.33,1.6-2.85.69-.51,1.64-.76,2.84-.76h18.72c.83,0,1.55.28,2.15.83.6.55.85,1.25.76,2.08-.09,5.18-1.23,9.83-3.4,13.94-2.17,4.12-5.2,7.63-9.09,10.54-3.88,2.91-8.41,5.13-13.59,6.66-5.18,1.53-10.82,2.29-16.92,2.29Z"
       id="path44"
       style="fill:#ffffff;fill-opacity:1" />
    <path
       class="cls-3"
       d="M436.46,432.5c-.67-.67-1.01-1.46-1.01-2.36v-87.85c0-.99.34-1.8,1.01-2.43.67-.63,1.46-.94,2.36-.94h18.11c.99,0,1.82.32,2.5.94.68.63,1.01,1.45,1.01,2.43v87.85c0,.99-.33,1.8-1.01,2.43-.67.63-1.51.95-2.5.95h-18.11c-.9,0-1.69-.34-2.36-1.01"
       id="path46"
       style="fill:#ffffff;fill-opacity:1" />
    <path
       class="cls-3"
       d="M35.69,432.23c-.9-.85-1.44-1.91-1.62-3.17l-14.73-86.36c-.09-.27-.13-.58-.13-.95,0-.72.29-1.37.88-1.96.58-.58,1.24-.88,1.96-.88h16.76c2.52,0,3.92.99,4.19,2.97l8.79,52.7,9.73-31.08c.99-2.43,2.48-3.65,4.46-3.65h9.73c2.25,0,3.74,1.21,4.46,3.65l9.73,31.08,8.78-52.7c.27-1.98,1.67-2.97,4.19-2.97h16.75c.81,0,1.51.29,2.1.88.59.59.88,1.24.88,1.96l-.13.95-14.73,86.36c-.19,1.26-.75,2.32-1.7,3.17-.94.86-2.14,1.29-3.58,1.29h-12.84c-1.44,0-2.56-.36-3.38-1.08-.81-.72-1.4-1.53-1.76-2.43l-13.65-38.65-13.65,38.65c-.81,2.35-2.48,3.51-5,3.51h-12.84c-1.54,0-2.75-.43-3.65-1.29"
       id="path48"
       style="fill:#ffffff;fill-opacity:1" />
    <path
       class="cls-3"
       d="M129.55,432.64c-.59-.58-.88-1.24-.88-1.96,0-.54.05-.95.13-1.22l31.76-86.76c.27-1.08.85-1.98,1.76-2.7.9-.72,2.07-1.08,3.51-1.08h20c1.44,0,2.61.36,3.52,1.08.89.72,1.48,1.62,1.76,2.7l31.62,86.76.27,1.22c0,.72-.29,1.38-.87,1.96-.59.59-1.29.88-2.1.88h-16.63c-2.16,0-3.6-.94-4.32-2.84l-5.27-13.79h-36.08l-5.14,13.79c-.72,1.89-2.21,2.84-4.46,2.84h-16.63c-.72,0-1.38-.29-1.96-.88M188.4,397.43l-12.57-35.68-12.57,35.68h25.14Z"
       id="path50"
       style="fill:#ffffff;fill-opacity:1" />
    <path
       class="cls-3"
       d="M249.76,431.08c-6.13-2.52-10.75-5.83-13.86-9.93-3.1-4.1-4.75-8.59-4.93-13.45,0-.72.29-1.38.88-1.96s1.28-.88,2.1-.88h17.03c1.08,0,1.96.2,2.64.61.67.4,1.37,1.01,2.1,1.82,1.17,2.34,3.06,4.28,5.67,5.81,2.61,1.54,6.08,2.3,10.41,2.3,5.13,0,9.06-.81,11.76-2.43,2.7-1.62,4.05-3.83,4.05-6.62,0-1.98-.7-3.6-2.1-4.87-1.4-1.26-3.58-2.38-6.55-3.38-2.97-.99-7.39-2.12-13.25-3.38-10.81-2.25-18.9-5.56-24.26-9.93-5.36-4.37-8.04-10.61-8.04-18.72,0-5.49,1.53-10.41,4.59-14.73,3.06-4.33,7.43-7.7,13.11-10.14,5.68-2.43,12.3-3.65,19.87-3.65s14.64,1.35,20.41,4.06c5.76,2.7,10.16,6.1,13.18,10.2,3.02,4.1,4.62,8.13,4.8,12.1,0,.81-.27,1.49-.81,2.03-.54.54-1.21.81-2.03.81h-17.84c-1.08,0-1.96-.18-2.64-.54-.67-.36-1.28-.94-1.82-1.76-.54-2.07-2.01-3.83-4.39-5.27-2.39-1.44-5.34-2.16-8.85-2.16-4.06,0-7.17.72-9.33,2.16-2.16,1.44-3.24,3.56-3.24,6.35,0,1.89.61,3.47,1.82,4.73,1.22,1.27,3.2,2.41,5.95,3.45,2.74,1.03,6.69,2.09,11.82,3.17,8.38,1.53,15.07,3.44,20.07,5.74,5,2.3,8.67,5.27,11.02,8.92,2.34,3.65,3.51,8.22,3.51,13.72,0,6.04-1.74,11.29-5.2,15.75-3.47,4.46-8.29,7.88-14.46,10.27-6.17,2.39-13.22,3.58-21.15,3.58-8.56,0-15.91-1.27-22.03-3.79"
       id="path52"
       style="fill:#ffffff;fill-opacity:1" />
    <path
       class="cls-3"
       d="M35.3,295.17c-9.91-9.2-15.19-22.03-15.85-38.49-.13-3.76-.19-9.78-.19-18.08s.06-14.32.19-18.08c.65-16.07,5.99-28.67,16.04-37.81,10.04-9.14,23.82-13.71,41.31-13.71,11.92,0,22.16,2.01,30.72,6.03,8.55,4.02,15.03,9.04,19.44,15.06,4.41,6.03,6.74,11.96,7,17.79v.39c0,1.04-.39,1.92-1.16,2.63-.78.71-1.75,1.07-2.92,1.07h-20.02c-1.3,0-2.27-.22-2.92-.68-.65-.45-1.23-1.27-1.75-2.43-1.82-4.79-4.99-8.91-9.53-12.34-4.54-3.43-10.83-5.15-18.86-5.15-9.07,0-16.17,2.46-21.29,7.38-5.12,4.93-7.87,12.51-8.26,22.75-.13,3.76-.19,9.46-.19,17.11s.06,13.22.19,17.11c.77,20.61,10.75,30.91,29.94,30.91,9.2,0,16.59-2.49,22.16-7.48,5.57-4.99,8.36-12.41,8.36-22.26v-6.03h-23.72c-1.43,0-2.56-.45-3.4-1.36-.84-.9-1.26-2.07-1.26-3.5v-10.3c0-1.43.42-2.59,1.26-3.5.84-.9,1.98-1.36,3.4-1.36h46.46c1.43,0,2.56.45,3.4,1.36.84.91,1.26,2.07,1.26,3.5v20.42c0,10.76-2.36,20.12-7.1,28.09-4.73,7.97-11.5,14.1-20.31,18.37-8.82,4.28-19.12,6.42-30.91,6.42-17.75,0-31.59-4.6-41.51-13.8"
       id="path54"
       style="fill:#ffffff;fill-opacity:1" />
    <path
       class="cls-3"
       d="M169.14,305.67c-.91-.9-1.36-2.01-1.36-3.3v-126.56c0-1.43.42-2.59,1.27-3.5.84-.9,1.97-1.36,3.4-1.36h50.35c15.81,0,28.22,3.7,37.23,11.09,9.01,7.38,13.51,17.88,13.51,31.49,0,9.46-2.31,17.4-6.9,23.82-4.6,6.41-10.98,11.05-19.15,13.9l28.38,49.57c.39.78.58,1.49.58,2.14,0,1.16-.42,2.14-1.26,2.91-.85.78-1.79,1.17-2.82,1.17h-17.69c-2.07,0-3.66-.45-4.76-1.36-1.1-.9-2.11-2.2-3.01-3.89l-25.08-46.07h-27.02v46.66c0,1.3-.42,2.4-1.26,3.3-.85.91-1.98,1.36-3.4,1.36h-17.69c-1.3,0-2.4-.45-3.31-1.36M222.22,233.74c7.78,0,13.64-1.75,17.59-5.25,3.95-3.5,5.93-8.55,5.93-15.16s-1.98-11.73-5.93-15.36c-3.96-3.63-9.82-5.44-17.59-5.44h-27.41v41.21h27.41Z"
       id="path56"
       style="fill:#ffffff;fill-opacity:1" />
    <path
       class="cls-3"
       d="M307.76,305.67c-.91-.9-1.36-2.01-1.36-3.31v-126.56c0-1.42.42-2.59,1.27-3.5.84-.9,1.97-1.36,3.4-1.36h85.53c1.43,0,2.59.46,3.5,1.36s1.37,2.08,1.37,3.5v12.83c0,1.43-.46,2.56-1.37,3.4-.9.84-2.07,1.26-3.5,1.26h-63.96v34.41h59.68c1.42,0,2.59.42,3.5,1.27.9.84,1.36,1.98,1.36,3.4v12.05c0,1.43-.46,2.56-1.36,3.4-.91.84-2.08,1.26-3.5,1.26h-59.68v35.58h65.52c1.43,0,2.59.45,3.5,1.36.9.91,1.36,2.08,1.36,3.5v12.83c0,1.43-.45,2.56-1.36,3.4-.91.84-2.08,1.26-3.5,1.26h-87.09c-1.3,0-2.4-.45-3.31-1.36"
       id="path58"
       style="fill:#ffffff;fill-opacity:1" />
    <path
       class="cls-3"
       d="M411.26,339.86c-.63-.63-1.44-.94-2.43-.94h-17.43c-.99,0-1.8.32-2.43.94-.63.63-.94,1.45-.94,2.43v32.57h-33.24v-32.57c0-.49-.09-.95-.26-1.36-.17-.4-.42-.77-.76-1.08-.67-.63-1.51-.94-2.5-.94h-17.43c-.9,0-1.69.32-2.37.94-.67.63-1.01,1.45-1.01,2.43v87.85c0,.5.08.95.24,1.36.16.41.39.77.71,1.08.63.63,1.44.94,2.44.94h17.43c.99,0,1.83-.31,2.5-.94.67-.63,1.01-1.44,1.01-2.43v-33.65h33.24v33.64c0,.99.31,1.8.94,2.43.63.63,1.44.95,2.43.95h17.43c.99,0,1.8-.32,2.43-.95.63-.63.95-1.44.95-2.43v-87.85c0-.99-.32-1.8-.95-2.43"
       id="path60"
       style="fill:#ffffff;fill-opacity:1" />
    <path
       class="cls-3"
       d="M450.82,527.41h-20.17l12.12-34.51,9.14,25.65,5.82-47.62c-.3-.89-.84-1.7-1.63-2.41-.88-.79-2.1-1.18-3.67-1.18h-20.53c-1.57,0-2.8.39-3.67,1.18-.88.79-1.46,1.69-1.73,2.71l-32.6,89.05c-.09.37-.14.79-.14,1.25,0,.74.3,1.41.9,2.01.6.6,1.27.9,2.01.9h17.06c1.57,0,2.68-.35,3.33-1.04.65-.69,1.06-1.32,1.25-1.87l5.27-14.15h24.81l2.44-19.97Z"
       id="path62"
       style="fill:#ffffff;fill-opacity:1" />
    <path
       class="cls-3"
       d="M480.49,284.68h-19.17v-30.42s0,0,0,0v-5.15h5.4s0,0,0,0h18.11l2.61-21.38h-26.12v-34.41h30.33l2.73-22.36h-54.65c-1.43,0-2.56.45-3.4,1.36-.84.91-1.27,2.08-1.27,3.5v126.56c0,1.3.45,2.4,1.36,3.3.9.91,2.01,1.36,3.31,1.36h38.01l2.73-22.36Z"
       id="path64"
       style="fill:#ffffff;fill-opacity:1" />
  </g>
  <g
     id="g100">
    <g
       id="g90">
      <path
         class="cls-1"
         d="M536.2,565.83c-9.25,0-16.92-1.32-23.02-3.95-6.1-2.64-10.73-6.08-13.87-10.33-3.15-4.25-4.81-8.79-4.99-13.59,0-.74.3-1.41.9-2.01.6-.6,1.32-.9,2.15-.9h17.48c1.29,0,2.29.23,2.98.69.69.46,1.32,1.07,1.87,1.8.74,1.39,1.78,2.73,3.12,4.02,1.34,1.3,3.1,2.34,5.27,3.12,2.17.79,4.88,1.18,8.11,1.18,5.36,0,9.41-.83,12.14-2.5,2.73-1.66,4.09-3.93,4.09-6.8,0-2.03-.74-3.72-2.22-5.06-1.48-1.34-3.86-2.54-7.15-3.61-3.28-1.06-7.65-2.15-13.11-3.26-7.03-1.48-13.02-3.4-17.96-5.76-4.95-2.36-8.72-5.45-11.3-9.29-2.59-3.84-3.88-8.62-3.88-14.36s1.59-10.68,4.79-15.12c3.19-4.44,7.65-7.91,13.38-10.41,5.73-2.49,12.53-3.74,20.39-3.74,6.38,0,12,.83,16.85,2.5,4.86,1.66,8.95,3.88,12.28,6.66,3.33,2.77,5.85,5.71,7.56,8.81,1.71,3.1,2.61,6.13,2.71,9.09,0,.74-.28,1.41-.83,2.01-.56.6-1.25.9-2.08.9h-18.31c-1.02,0-1.9-.18-2.64-.55-.74-.37-1.39-.97-1.94-1.8-.56-2.03-2.01-3.81-4.37-5.34-2.36-1.53-5.43-2.29-9.22-2.29-4.07,0-7.24.72-9.5,2.15-2.27,1.43-3.4,3.63-3.4,6.59,0,1.85.62,3.47,1.87,4.86,1.25,1.39,3.33,2.59,6.24,3.61,2.91,1.02,6.91,2.08,12,3.19,8.41,1.57,15.21,3.54,20.39,5.89,5.18,2.36,8.97,5.41,11.37,9.15,2.41,3.75,3.61,8.44,3.61,14.08,0,6.29-1.78,11.72-5.34,16.3-3.56,4.58-8.49,8.07-14.77,10.47-6.29,2.41-13.5,3.61-21.64,3.61Z"
         id="path68" />
      <path
         class="cls-1"
         d="M595.29,564.44c-1.02,0-1.85-.32-2.5-.97-.65-.65-.97-1.48-.97-2.5v-90.16c0-1.02.33-1.85.97-2.5.65-.65,1.48-.97,2.5-.97h64.78c1.02,0,1.85.33,2.5.97.65.65.97,1.48.97,2.5v13.04c0,1.02-.33,1.85-.97,2.49-.65.65-1.48.97-2.5.97h-44.25v18.73h41.19c1.02,0,1.85.35,2.5,1.04.65.69.97,1.55.97,2.57v12.07c0,.93-.33,1.73-.97,2.43-.65.69-1.48,1.04-2.5,1.04h-41.19v19.28h45.35c1.02,0,1.85.33,2.5.97.65.65.97,1.48.97,2.5v13.04c0,1.02-.33,1.85-.97,2.5-.65.65-1.48.97-2.5.97h-65.88Z"
         id="path70" />
      <path
         class="cls-1"
         d="M716.65,565.83c-9.25,0-16.92-1.32-23.02-3.95-6.1-2.64-10.73-6.08-13.87-10.33-3.15-4.25-4.81-8.79-4.99-13.59,0-.74.3-1.41.9-2.01.6-.6,1.32-.9,2.15-.9h17.48c1.29,0,2.29.23,2.98.69.69.46,1.32,1.07,1.87,1.8.74,1.39,1.78,2.73,3.12,4.02,1.34,1.3,3.1,2.34,5.27,3.12,2.17.79,4.88,1.18,8.11,1.18,5.36,0,9.41-.83,12.14-2.5,2.73-1.66,4.09-3.93,4.09-6.8,0-2.03-.74-3.72-2.22-5.06-1.48-1.34-3.86-2.54-7.15-3.61-3.28-1.06-7.65-2.15-13.11-3.26-7.03-1.48-13.02-3.4-17.96-5.76-4.95-2.36-8.72-5.45-11.3-9.29-2.59-3.84-3.88-8.62-3.88-14.36s1.59-10.68,4.79-15.12c3.19-4.44,7.65-7.91,13.38-10.41,5.73-2.49,12.53-3.74,20.39-3.74,6.38,0,12,.83,16.85,2.5,4.86,1.66,8.95,3.88,12.28,6.66,3.33,2.77,5.85,5.71,7.56,8.81,1.71,3.1,2.61,6.13,2.71,9.09,0,.74-.28,1.41-.83,2.01-.56.6-1.25.9-2.08.9h-18.31c-1.02,0-1.9-.18-2.64-.55-.74-.37-1.39-.97-1.94-1.8-.56-2.03-2.01-3.81-4.37-5.34-2.36-1.53-5.43-2.29-9.22-2.29-4.07,0-7.24.72-9.5,2.15-2.27,1.43-3.4,3.63-3.4,6.59,0,1.85.62,3.47,1.87,4.86,1.25,1.39,3.33,2.59,6.24,3.61,2.91,1.02,6.91,2.08,12,3.19,8.41,1.57,15.21,3.54,20.39,5.89,5.18,2.36,8.97,5.41,11.37,9.15,2.41,3.75,3.61,8.44,3.61,14.08,0,6.29-1.78,11.72-5.34,16.3-3.56,4.58-8.49,8.07-14.77,10.47-6.29,2.41-13.5,3.61-21.64,3.61Z"
         id="path72" />
      <path
         class="cls-1"
         d="M485.24,432.5c-.67-.67-1.01-1.46-1.01-2.36v-87.85c0-.99.34-1.8,1.01-2.43.67-.63,1.46-.94,2.36-.94h14.33c2.25,0,3.79.86,4.59,2.57l32.98,51.9v-51.09c0-.99.34-1.8,1.01-2.43.67-.63,1.47-.94,2.36-.94h16.22c.99,0,1.8.32,2.43.94.63.63.94,1.45.94,2.43v87.71c0,.99-.32,1.83-.94,2.5-.63.67-1.44,1.01-2.43,1.01h-14.46c-1.98,0-3.47-.85-4.46-2.57l-32.98-50v49.2c0,.9-.32,1.69-.94,2.36-.63.67-1.44,1.01-2.43,1.01h-16.22c-.9,0-1.69-.34-2.36-1.01"
         id="path74" />
      <path
         class="cls-1"
         d="M595.17,425.34c7.3,6.35,17.43,9.53,30.41,9.53,8.56,0,16.06-1.46,22.5-4.39,6.44-2.93,11.42-7.16,14.93-12.7,3.51-5.54,5.27-12.14,5.27-19.8v-15.4c0-.99-.32-1.82-.94-2.5-.63-.68-1.44-1.01-2.43-1.01h-34.06c-.99,0-1.8.33-2.43,1.01-.63.68-.94,1.51-.94,2.5v10c0,.99.31,1.83.94,2.5.63.68,1.44,1.01,2.43,1.01h12.7v2.57c0,5.67-1.6,9.89-4.8,12.64-3.2,2.75-7.45,4.12-12.77,4.12-10.99,0-16.76-5.95-17.3-17.84-.09-2.61-.13-6.53-.13-11.76s.04-9.23.13-11.76c.54-11.35,6.17-17.03,16.89-17.03,4.5,0,8.02.97,10.54,2.91,2.52,1.94,4.37,4.21,5.54,6.82.36.72.81,1.22,1.35,1.49.54.27,1.26.41,2.16.41h19.73c.81,0,1.51-.27,2.09-.81.59-.54.88-1.22.88-2.03-.18-4.59-1.96-9.05-5.34-13.38-3.38-4.33-8.24-7.88-14.59-10.68-6.35-2.79-13.81-4.19-22.37-4.19-12.7,0-22.77,3.11-30.21,9.33-7.43,6.22-11.38,15.05-11.82,26.49-.09,2.61-.14,6.76-.14,12.43s.04,9.82.14,12.44c.45,11.71,4.33,20.74,11.62,27.09"
         id="path76" />
      <path
         class="cls-1"
         d="M665.45,172.31c-.91-.9-2.08-1.36-3.5-1.36h-16.33c-1.43,0-2.56.45-3.4,1.36-.84.91-1.26,2.08-1.26,3.5v85.34l-48.53-75.49s0,0,0,0l-7.46-11.6c-.65-.9-1.36-1.65-2.14-2.24-.78-.58-1.95-.87-3.5-.87h-14.98c-1.43,0-2.56.45-3.4,1.36-.84.91-1.27,2.08-1.27,3.5v126.56c0,1.3.45,2.4,1.36,3.3.9.91,2.01,1.36,3.3,1.36h16.33c1.43,0,2.59-.42,3.5-1.27.9-.84,1.36-1.97,1.36-3.4v-83.6l55.8,85.15c1.56,2.08,3.43,3.11,5.64,3.11h15.16c1.3,0,2.4-.45,3.3-1.36.9-.9,1.36-2.07,1.36-3.5v-126.36c0-1.43-.45-2.59-1.36-3.5"
         id="path78" />
      <path
         class="cls-1"
         d="M466.01,561.53c.19.56.63,1.18,1.32,1.87.69.69,1.73,1.04,3.12,1.04h17.06c.83,0,1.55-.3,2.15-.9s.9-1.27.9-2.01c0-.46-.09-.88-.28-1.25l-32.46-89.05c-.03-.1-.07-.2-.11-.3l-5.82,47.62,3.15,8.86h-4.24l-2.44,19.97h12.23l5.41,14.15Z"
         id="path80" />
      <g
         id="g88">
        <path
           class="cls-1"
           d="M526.84,284.68h-46.35l-2.73,22.36h49.08c1.43,0,2.59-.42,3.5-1.27.9-.84,1.36-1.97,1.36-3.4v-12.83c0-1.43-.45-2.59-1.36-3.5-.91-.9-2.08-1.36-3.5-1.36Z"
           id="path82" />
        <path
           class="cls-1"
           d="M530.15,188.64v-12.83c0-1.43-.46-2.59-1.36-3.5-.45-.45-.97-.79-1.56-1.02-.1-.04-.22-.03-.33-.06-.5-.16-1.02-.28-1.61-.28h-30.89l-2.73,22.36h33.63c1.43,0,2.6-.42,3.5-1.27.9-.84,1.36-1.98,1.36-3.4Z"
           id="path84" />
        <path
           class="cls-1"
           d="M524.51,247.84c.9-.84,1.36-1.98,1.36-3.4v-12.06c0-1.42-.45-2.56-1.36-3.4-.91-.84-2.08-1.27-3.5-1.27h-33.55l-2.61,21.38h36.17c1.42,0,2.59-.42,3.5-1.26Z"
           id="path86" />
      </g>
    </g>
    <g
       id="g98">
      <path
         class="cls-1"
         d="M870.36,689.74c-15.79-4.42-32.18,4.8-36.59,20.6-4.42,15.79,4.81,32.18,20.6,36.59,15.79,4.42,32.17-4.8,36.59-20.6,4.42-15.79-4.81-32.18-20.6-36.59Z"
         id="path92" />
      <path
         class="cls-1"
         d="M942.06,111.34l-80.09-9.79.16-1.32c5.27-43.12-25.52-82.49-68.64-87.76-20.89-2.56-41.52,3.18-58.1,16.15-16.58,12.96-27.11,31.61-29.66,52.5-.05.45-.07.89-.07,1.33l-185.14-22.63c-2.88-.36-5.78.45-8.07,2.24s-3.77,4.41-4.12,7.29l-7.25,59.31c-.73,6,3.53,11.45,9.53,12.19,6,.74,11.45-3.54,12.19-9.53l5.92-48.45,308.88,37.76-10.02,81.99c-1.54,12.58-13.02,21.56-25.6,20.02-12.58-1.54-21.56-13.02-20.02-25.6l6.18-50.55c.73-6-3.53-11.45-9.53-12.19-6.01-.74-11.45,3.54-12.19,9.53l-6.18,50.55c-3,24.55,14.53,46.97,39.09,49.97,1.84.23,3.67.33,5.48.33,22.33,0,41.72-16.71,44.5-39.42l10.02-81.99,69.26,8.47-61.24,510.26c-.72,6,3.56,11.45,9.56,12.17.44.05.88.08,1.32.08,5.46,0,10.18-4.08,10.85-9.64l62.55-521.1c.72-5.99-3.55-11.43-9.53-12.16ZM727.19,85.07c.11-.43.2-.86.25-1.31,1.84-15.09,9.45-28.55,21.42-37.92s26.87-13.5,41.96-11.66c31.14,3.81,53.38,32.24,49.58,63.39l-.16,1.32-113.05-13.82Z"
         id="path94" />
      <path
         class="cls-1"
         d="M796.18,703.85l-338.07-41.33,6.53-54.43c.72-6-3.56-11.45-9.56-12.17-6-.72-11.45,3.56-12.17,9.56l-7.83,65.27c-.72,5.99,3.55,11.43,9.53,12.16l348.91,42.65c.45.06.9.08,1.34.08,5.45,0,10.17-4.07,10.85-9.61.73-6-3.53-11.45-9.53-12.19Z"
         id="path96" />
    </g>
  </g>
</svg>
